<mxfile host="app.diagrams.net" agent="Mozilla/5.0 (Windows NT 10.0; Win64; x64) AppleWebKit/537.36 (KHTML, like Gecko) Chrome/131.0.0.0 Safari/537.36 Edg/131.0.0.0" version="24.9.0">
  <diagram name="第 1 页" id="lJbDGNoLAA3M1v1Cdnf2">
    <mxGraphModel dx="1152" dy="696" grid="1" gridSize="10" guides="1" tooltips="1" connect="1" arrows="1" fold="1" page="1" pageScale="1" pageWidth="827" pageHeight="1169" math="0" shadow="0">
      <root>
        <mxCell id="0" />
        <mxCell id="1" parent="0" />
        <mxCell id="EB6OUKosMQm6vb88IFiy-6" style="edgeStyle=orthogonalEdgeStyle;rounded=0;orthogonalLoop=1;jettySize=auto;html=1;exitX=1;exitY=0.5;exitDx=0;exitDy=0;entryX=0;entryY=0.5;entryDx=0;entryDy=0;" edge="1" parent="1" source="EB6OUKosMQm6vb88IFiy-1" target="EB6OUKosMQm6vb88IFiy-2">
          <mxGeometry relative="1" as="geometry" />
        </mxCell>
        <mxCell id="EB6OUKosMQm6vb88IFiy-1" value="PR" style="rounded=1;whiteSpace=wrap;html=1;" vertex="1" parent="1">
          <mxGeometry x="100" y="120" width="120" height="50" as="geometry" />
        </mxCell>
        <mxCell id="EB6OUKosMQm6vb88IFiy-11" style="edgeStyle=orthogonalEdgeStyle;rounded=0;orthogonalLoop=1;jettySize=auto;html=1;exitX=0.5;exitY=1;exitDx=0;exitDy=0;entryX=0.5;entryY=0;entryDx=0;entryDy=0;" edge="1" parent="1" source="EB6OUKosMQm6vb88IFiy-2" target="EB6OUKosMQm6vb88IFiy-10">
          <mxGeometry relative="1" as="geometry" />
        </mxCell>
        <mxCell id="EB6OUKosMQm6vb88IFiy-2" value="check" style="rounded=1;whiteSpace=wrap;html=1;" vertex="1" parent="1">
          <mxGeometry x="330" y="120" width="120" height="50" as="geometry" />
        </mxCell>
        <mxCell id="EB6OUKosMQm6vb88IFiy-8" style="edgeStyle=orthogonalEdgeStyle;rounded=0;orthogonalLoop=1;jettySize=auto;html=1;exitX=0.5;exitY=1;exitDx=0;exitDy=0;entryX=0.5;entryY=0;entryDx=0;entryDy=0;" edge="1" parent="1" source="EB6OUKosMQm6vb88IFiy-3" target="EB6OUKosMQm6vb88IFiy-4">
          <mxGeometry relative="1" as="geometry" />
        </mxCell>
        <mxCell id="EB6OUKosMQm6vb88IFiy-3" value="通过GITEE接口获取需要的信息" style="rounded=1;whiteSpace=wrap;html=1;" vertex="1" parent="1">
          <mxGeometry x="330" y="310" width="120" height="50" as="geometry" />
        </mxCell>
        <mxCell id="EB6OUKosMQm6vb88IFiy-9" style="edgeStyle=orthogonalEdgeStyle;rounded=0;orthogonalLoop=1;jettySize=auto;html=1;exitX=0.5;exitY=1;exitDx=0;exitDy=0;entryX=0.5;entryY=0;entryDx=0;entryDy=0;" edge="1" parent="1" source="EB6OUKosMQm6vb88IFiy-4" target="EB6OUKosMQm6vb88IFiy-5">
          <mxGeometry relative="1" as="geometry" />
        </mxCell>
        <mxCell id="EB6OUKosMQm6vb88IFiy-4" value="克隆target仓库" style="rounded=1;whiteSpace=wrap;html=1;" vertex="1" parent="1">
          <mxGeometry x="330" y="410" width="120" height="50" as="geometry" />
        </mxCell>
        <mxCell id="EB6OUKosMQm6vb88IFiy-5" value="克隆source仓库" style="rounded=1;whiteSpace=wrap;html=1;" vertex="1" parent="1">
          <mxGeometry x="330" y="500" width="120" height="50" as="geometry" />
        </mxCell>
        <mxCell id="EB6OUKosMQm6vb88IFiy-12" style="edgeStyle=orthogonalEdgeStyle;rounded=0;orthogonalLoop=1;jettySize=auto;html=1;exitX=0.5;exitY=1;exitDx=0;exitDy=0;entryX=0.5;entryY=0;entryDx=0;entryDy=0;" edge="1" parent="1" source="EB6OUKosMQm6vb88IFiy-10" target="EB6OUKosMQm6vb88IFiy-3">
          <mxGeometry relative="1" as="geometry" />
        </mxCell>
        <mxCell id="EB6OUKosMQm6vb88IFiy-10" value="读取配置文件" style="rounded=1;whiteSpace=wrap;html=1;" vertex="1" parent="1">
          <mxGeometry x="330" y="210" width="120" height="50" as="geometry" />
        </mxCell>
      </root>
    </mxGraphModel>
  </diagram>
</mxfile>
